<svg id="Layer_1" data-name="Layer 1" xmlns="http://www.w3.org/2000/svg" viewBox="0 0 500 500"><defs><style>.cls-1{fill:none;stroke:#000;stroke-linecap:round;stroke-linejoin:round;stroke-width:15px;}.cls-2{fill:#eab671;}.cls-3{fill:#c99965;}.cls-4{fill:#934c12;}.cls-5{fill:#7f4011;}.cls-6{fill:#e51c5a;}</style></defs><title>sand-castle</title><line class="cls-1" x1="8.54" y1="492.57" x2="491.46" y2="492.57"/><polygon class="cls-2" points="135.16 247.88 154.13 223.32 154.13 190.15 88.06 190.15 21.99 190.15 21.99 223.32 40.95 247.88 135.16 247.88"/><polygon class="cls-2" points="364.84 247.88 345.87 223.32 345.87 190.15 411.94 190.15 478.01 190.15 478.01 223.32 459.05 247.88 364.84 247.88"/><polygon class="cls-2" points="297.11 216.54 316.07 191.99 316.07 158.81 250 158.81 183.93 158.81 183.93 191.99 202.89 216.54 297.11 216.54"/><polygon class="cls-2" points="318.9 282.22 318.9 309.84 272.97 309.84 272.97 282.22 227.03 282.22 227.03 309.84 181.1 309.84 181.1 282.22 135.16 282.22 135.16 309.84 135.16 492.21 364.84 492.21 364.84 309.84 364.84 282.22 318.9 282.22"/><rect class="cls-2" x="40.95" y="247.88" width="94.21" height="244.33" transform="translate(176.11 740.09) rotate(180)"/><rect class="cls-2" x="364.84" y="247.88" width="94.21" height="244.33"/><polygon class="cls-2" points="227.03 309.84 227.03 282.22 272.97 282.22 272.97 309.84 297.11 309.84 297.11 216.54 202.89 216.54 202.89 309.84 227.03 309.84"/><path class="cls-3" d="M118.13,190.15v33.17l-19,24.56h36l19-24.56V190.15Z"/><polygon class="cls-3" points="442.01 190.15 442.01 223.32 423.05 247.88 459.05 247.88 478.01 223.32 478.01 190.15 442.01 190.15"/><path class="cls-3" d="M280.07,158.81V192l-19,24.56h36l19-24.56V158.81Z"/><polygon class="cls-3" points="325.52 282.22 325.52 309.84 325.52 492.21 364.84 492.21 364.84 309.84 364.84 282.22 325.52 282.22"/><rect class="cls-3" x="99.16" y="247.88" width="36" height="244.33"/><rect class="cls-3" x="423.05" y="247.88" width="36" height="244.33"/><polygon class="cls-3" points="261.11 216.54 261.11 282.22 272.97 282.22 272.97 309.84 297.11 309.84 297.11 216.54 261.11 216.54"/><path class="cls-4" d="M250,360.13h0a42.34,42.34,0,0,1,42.34,42.34v89.73a0,0,0,0,1,0,0H207.66a0,0,0,0,1,0,0V402.48A42.34,42.34,0,0,1,250,360.13Z"/><path class="cls-5" d="M250,360.13h0a42.16,42.16,0,0,0-18,4,42.35,42.35,0,0,1,24.34,38.33v89.73h36V402.48A42.34,42.34,0,0,0,250,360.13Z"/><polygon class="cls-6" points="250 59.9 250 24.75 340.88 59.9 250 95.06 250 59.9"/><path class="cls-1" d="M250,360.13h0a42.34,42.34,0,0,1,42.34,42.34v89.73a0,0,0,0,1,0,0H207.66a0,0,0,0,1,0,0V402.48A42.34,42.34,0,0,1,250,360.13Z"/><rect class="cls-1" x="40.95" y="247.88" width="94.21" height="244.33" transform="translate(176.11 740.09) rotate(180)"/><polygon class="cls-1" points="318.9 282.22 318.9 309.84 272.97 309.84 272.97 282.22 227.03 282.22 227.03 309.84 181.1 309.84 181.1 282.22 135.16 282.22 135.16 309.84 135.16 492.21 364.84 492.21 364.84 309.84 364.84 282.22 318.9 282.22"/><polygon class="cls-1" points="135.16 247.88 154.13 223.32 154.13 190.15 88.06 190.15 21.99 190.15 21.99 223.32 40.95 247.88 135.16 247.88"/><rect class="cls-1" x="364.84" y="247.88" width="94.21" height="244.33"/><polygon class="cls-1" points="364.84 247.88 345.87 223.32 345.87 190.15 411.94 190.15 478.01 190.15 478.01 223.32 459.05 247.88 364.84 247.88"/><polygon class="cls-1" points="297.11 216.54 316.07 191.99 316.07 158.81 250 158.81 183.93 158.81 183.93 191.99 202.89 216.54 297.11 216.54"/><line class="cls-1" x1="250" y1="158.81" x2="250" y2="7.79"/><polygon class="cls-1" points="250 59.9 250 24.75 340.88 59.9 250 95.06 250 59.9"/><polygon class="cls-1" points="227.03 309.84 227.03 282.22 272.97 282.22 272.97 309.84 297.11 309.84 297.11 216.54 202.89 216.54 202.89 309.84 227.03 309.84"/></svg>